<svg width="263" height="369" viewBox="0 0 263 369" fill="none" xmlns="http://www.w3.org/2000/svg">
<path fill-rule="evenodd" clip-rule="evenodd" d="M262.59 131.128C262.59 203.527 203.899 262.218 131.5 262.218C59.1008 262.218 0.409668 203.527 0.409668 131.128C0.409668 58.7287 59.1008 0.0375977 131.5 0.0375977C161.013 0.0375977 188.248 9.79058 210.159 26.2494C212.008 23.7846 214.039 21.4396 216.243 19.2353C228.535 6.94323 245.207 0.0375977 262.59 0.0375977V131.128ZM197.045 131.128C197.045 167.328 167.7 196.673 131.5 196.673C95.3004 196.673 65.9548 167.328 65.9548 131.128C65.9548 94.9283 95.3004 65.5828 131.5 65.5828C167.7 65.5828 197.045 94.9283 197.045 131.128Z" fill="white" fill-opacity="0.04"/>
<path d="M3.42324 303.418C3.42324 320.802 10.3289 337.473 22.621 349.766C34.9131 362.058 51.5847 368.963 68.9684 368.963H261.084C261.084 351.58 254.178 334.908 241.886 322.616C229.594 310.324 212.922 303.418 195.538 303.418H3.42324Z" fill="white" fill-opacity="0.04"/>
</svg>
