<svg xmlns="http://www.w3.org/2000/svg" width="40" height="57" viewBox="0 0 40 57" fill="none">
  <path fill-rule="evenodd" clip-rule="evenodd" d="M39.1061 20.5389C39.1061 31.3378 30.3519 40.092 19.5531 40.092C8.75421 40.092 0 31.3378 0 20.5389C0 9.74005 8.75421 0.98584 19.5531 0.98584C23.9552 0.98584 28.0175 2.44057 31.2856 4.89551C31.5614 4.52788 31.8643 4.1781 32.1931 3.84932C34.0265 2.01586 36.5132 0.98584 39.1061 0.98584V20.5389ZM29.3296 20.5389C29.3296 25.9383 24.9525 30.3154 19.5531 30.3154C14.1536 30.3154 9.77653 25.9383 9.77653 20.5389C9.77653 15.1395 14.1536 10.7624 19.5531 10.7624C24.9525 10.7624 29.3296 15.1395 29.3296 20.5389Z" fill="white"/>
  <path d="M0.449496 46.2372C0.449496 48.8301 1.47952 51.3168 3.31298 53.1503C5.14643 54.9837 7.63313 56.0138 10.226 56.0138H38.8814C38.8814 53.4209 37.8514 50.9342 36.0179 49.1007C34.1845 47.2673 31.6978 46.2372 29.1049 46.2372H0.449496Z" fill="white"/>
</svg>