<svg width="85" height="34" viewBox="0 0 85 34" fill="none" xmlns="http://www.w3.org/2000/svg">
<rect width="34" height="34" rx="17" fill="#9747FF"/>
<path fill-rule="evenodd" clip-rule="evenodd" d="M17.0001 20.9827C20.6661 20.9827 23.6379 18.0108 23.6379 14.3448C23.6379 10.6789 20.6661 7.70703 17.0001 7.70703C13.3342 7.70703 10.3623 10.6789 10.3623 14.3448C10.3623 18.0108 13.3342 20.9827 17.0001 20.9827ZM17.0002 17.6636C18.8332 17.6636 20.3191 16.1776 20.3191 14.3446C20.3191 12.5117 18.8332 11.0257 17.0002 11.0257C15.1672 11.0257 13.6813 12.5117 13.6813 14.3446C13.6813 16.1776 15.1672 17.6636 17.0002 17.6636Z" fill="#130D13"/>
<path d="M23.638 14.3448C22.7578 14.3448 21.9136 13.9952 21.2912 13.3728C20.6688 12.7503 20.3191 11.9062 20.3191 11.0259C20.3191 10.1457 20.6688 9.30153 21.2912 8.67912C21.9136 8.0567 22.7578 7.70703 23.638 7.70703V14.3448Z" fill="#130D13"/>
<path d="M13.9466 22.9741C13.5107 22.9741 13.0792 23.0599 12.6765 23.2267C12.2738 23.3935 11.908 23.638 11.5998 23.9461C11.2916 24.2543 11.0471 24.6202 10.8803 25.0229C10.7135 25.4255 10.6277 25.8571 10.6277 26.293L13.9466 26.293L13.9466 22.9741Z" fill="#130D13"/>
<path d="M20.1863 22.9736C20.6221 22.9736 21.0537 23.0595 21.4564 23.2263C21.859 23.3931 22.2249 23.6375 22.5331 23.9457C22.8413 24.2539 23.0858 24.6198 23.2526 25.0225C23.4193 25.4251 23.5052 25.8567 23.5052 26.2925H20.1863L20.1863 22.9736Z" fill="#130D13"/>
<rect x="13.9468" y="22.9736" width="6.23955" height="3.31891" fill="#130D13"/>
<rect x="17" width="34" height="34" rx="17" fill="#47CEFF"/>
<path fill-rule="evenodd" clip-rule="evenodd" d="M34.0001 20.9827C37.6661 20.9827 40.6379 18.0108 40.6379 14.3448C40.6379 10.6789 37.6661 7.70703 34.0001 7.70703C30.3342 7.70703 27.3623 10.6789 27.3623 14.3448C27.3623 18.0108 30.3342 20.9827 34.0001 20.9827ZM34.0002 17.6636C35.8332 17.6636 37.3191 16.1776 37.3191 14.3446C37.3191 12.5117 35.8332 11.0257 34.0002 11.0257C32.1672 11.0257 30.6813 12.5117 30.6813 14.3446C30.6813 16.1776 32.1672 17.6636 34.0002 17.6636Z" fill="#130D13"/>
<path d="M40.638 14.3448C39.7578 14.3448 38.9136 13.9952 38.2912 13.3728C37.6688 12.7503 37.3191 11.9062 37.3191 11.0259C37.3191 10.1457 37.6688 9.30153 38.2912 8.67912C38.9136 8.0567 39.7578 7.70703 40.638 7.70703V14.3448Z" fill="#130D13"/>
<path d="M30.9466 22.9741C30.5107 22.9741 30.0792 23.0599 29.6765 23.2267C29.2738 23.3935 28.908 23.638 28.5998 23.9461C28.2916 24.2543 28.0471 24.6202 27.8803 25.0229C27.7135 25.4255 27.6277 25.8571 27.6277 26.293L30.9466 26.293L30.9466 22.9741Z" fill="#130D13"/>
<path d="M37.1863 22.9736C37.6221 22.9736 38.0537 23.0595 38.4564 23.2263C38.859 23.3931 39.2249 23.6375 39.5331 23.9457C39.8413 24.2539 40.0858 24.6198 40.2526 25.0225C40.4193 25.4251 40.5052 25.8567 40.5052 26.2925H37.1863L37.1863 22.9736Z" fill="#130D13"/>
<rect x="30.9468" y="22.9736" width="6.23955" height="3.31891" fill="#130D13"/>
<rect x="34" width="34" height="34" rx="17" fill="#B2FF47"/>
<path fill-rule="evenodd" clip-rule="evenodd" d="M51.0001 20.9827C54.6661 20.9827 57.6379 18.0108 57.6379 14.3448C57.6379 10.6789 54.6661 7.70703 51.0001 7.70703C47.3342 7.70703 44.3623 10.6789 44.3623 14.3448C44.3623 18.0108 47.3342 20.9827 51.0001 20.9827ZM51.0002 17.6636C52.8332 17.6636 54.3191 16.1776 54.3191 14.3446C54.3191 12.5117 52.8332 11.0257 51.0002 11.0257C49.1672 11.0257 47.6813 12.5117 47.6813 14.3446C47.6813 16.1776 49.1672 17.6636 51.0002 17.6636Z" fill="#130D13"/>
<path d="M57.638 14.3448C56.7578 14.3448 55.9136 13.9952 55.2912 13.3728C54.6688 12.7503 54.3191 11.9062 54.3191 11.0259C54.3191 10.1457 54.6688 9.30153 55.2912 8.67912C55.9136 8.0567 56.7578 7.70703 57.638 7.70703V14.3448Z" fill="#130D13"/>
<path d="M47.9466 22.9741C47.5107 22.9741 47.0792 23.0599 46.6765 23.2267C46.2738 23.3935 45.908 23.638 45.5998 23.9461C45.2916 24.2543 45.0471 24.6202 44.8803 25.0229C44.7135 25.4255 44.6277 25.8571 44.6277 26.293L47.9466 26.293L47.9466 22.9741Z" fill="#130D13"/>
<path d="M54.1863 22.9736C54.6221 22.9736 55.0537 23.0595 55.4564 23.2263C55.859 23.3931 56.2249 23.6375 56.5331 23.9457C56.8413 24.2539 57.0858 24.6198 57.2526 25.0225C57.4193 25.4251 57.5052 25.8567 57.5052 26.2925H54.1863L54.1863 22.9736Z" fill="#130D13"/>
<rect x="47.9468" y="22.9736" width="6.23955" height="3.31891" fill="#130D13"/>
<rect x="51" width="34" height="34" rx="17" fill="#FFEA47"/>
<path fill-rule="evenodd" clip-rule="evenodd" d="M68.0001 20.9827C71.6661 20.9827 74.6379 18.0108 74.6379 14.3448C74.6379 10.6789 71.6661 7.70703 68.0001 7.70703C64.3342 7.70703 61.3623 10.6789 61.3623 14.3448C61.3623 18.0108 64.3342 20.9827 68.0001 20.9827ZM68.0002 17.6636C69.8332 17.6636 71.3191 16.1776 71.3191 14.3446C71.3191 12.5117 69.8332 11.0257 68.0002 11.0257C66.1672 11.0257 64.6813 12.5117 64.6813 14.3446C64.6813 16.1776 66.1672 17.6636 68.0002 17.6636Z" fill="#130D13"/>
<path d="M74.638 14.3448C73.7578 14.3448 72.9136 13.9952 72.2912 13.3728C71.6688 12.7503 71.3191 11.9062 71.3191 11.0259C71.3191 10.1457 71.6688 9.30153 72.2912 8.67912C72.9136 8.0567 73.7578 7.70703 74.638 7.70703V14.3448Z" fill="#130D13"/>
<path d="M64.9466 22.9741C64.5107 22.9741 64.0792 23.0599 63.6765 23.2267C63.2738 23.3935 62.908 23.638 62.5998 23.9461C62.2916 24.2543 62.0471 24.6202 61.8803 25.0229C61.7135 25.4255 61.6277 25.8571 61.6277 26.293L64.9466 26.293L64.9466 22.9741Z" fill="#130D13"/>
<path d="M71.1863 22.9736C71.6221 22.9736 72.0537 23.0595 72.4564 23.2263C72.859 23.3931 73.2249 23.6375 73.5331 23.9457C73.8413 24.2539 74.0858 24.6198 74.2526 25.0225C74.4193 25.4251 74.5052 25.8567 74.5052 26.2925H71.1863L71.1863 22.9736Z" fill="#130D13"/>
<rect x="64.9468" y="22.9736" width="6.23955" height="3.31891" fill="#130D13"/>
</svg>
